<svg xmlns="http://www.w3.org/2000/svg" version="1.1" xmlns:xlink="http://www.w3.org/1999/xlink" width="1000" height="1000"><metadata><rdf:RDF xmlns:rdf="http://www.w3.org/1999/02/22-rdf-syntax-ns#" xmlns:dc="http://purl.org/dc/elements/1.1/"><rdf:Description><dc:creator>RealFaviconGenerator</dc:creator><dc:source>https://realfavicongenerator.net</dc:source></rdf:Description></rdf:RDF></metadata><g clip-path="url(#SvgjsClipPath1076)"><rect width="1000" height="1000" fill="#ffffff"></rect><g transform="matrix(0.9765625,0,0,0.9765625,0,0)"><svg xmlns="http://www.w3.org/2000/svg" width="1024" height="1024" viewBox="0 0 1024 1024" fill="none"><circle cx="512" cy="512" r="413" stroke="#001BA4" stroke-width="60"></circle><mask id="path-3-outside-1_102_4" maskUnits="userSpaceOnUse" x="182" y="390" width="673" height="283" fill="black">
<rect fill="white" x="182" y="390" width="673" height="283"></rect>
<path d="M242.16 602C239.387 602 236.787 601.22 234.36 599.66C232.107 597.927 230.547 595.847 229.68 593.42L191.2 477.98C189.813 472.607 189.813 468.273 191.2 464.98C192.76 461.513 196.053 459.78 201.08 459.78C204.373 459.78 207.06 460.733 209.14 462.64C211.393 464.373 213.213 467.407 214.6 471.74L247.36 574.18H238.26L269.2 469.66C270.067 466.713 271.54 464.373 273.62 462.64C275.7 460.733 278.56 459.78 282.2 459.78C285.667 459.78 288.44 460.733 290.52 462.64C292.773 464.373 294.247 466.713 294.94 469.66L320.16 567.94H316.26L346.94 471.74C349.367 463.767 353.873 459.78 360.46 459.78C365.313 459.78 368.607 461.513 370.34 464.98C372.073 468.273 371.987 472.607 370.08 477.98L331.6 593.42C330.907 595.847 329.433 597.927 327.18 599.66C324.927 601.22 322.327 602 319.38 602C316.607 602 314.007 601.22 311.58 599.66C309.153 597.927 307.593 595.847 306.9 593.42L280.12 494.36H282.72L254.64 593.42C253.947 595.847 252.387 597.927 249.96 599.66C247.707 601.22 245.107 602 242.16 602ZM460.302 603.04C445.915 603.04 433.089 600.007 421.822 593.94C410.729 587.7 401.975 579.207 395.562 568.46C389.322 557.54 386.202 545.06 386.202 531.02C386.202 516.807 389.149 504.327 395.042 493.58C401.109 482.66 409.429 474.167 420.002 468.1C430.575 461.86 442.709 458.74 456.402 458.74C469.922 458.74 481.535 461.773 491.242 467.84C500.949 473.733 508.315 481.967 513.342 492.54C518.542 502.94 521.142 514.987 521.142 528.68C521.142 531.973 520.015 534.747 517.762 537C515.509 539.08 512.649 540.12 509.182 540.12H404.402V519.32H508.402L497.742 526.6C497.569 517.933 495.835 510.22 492.542 503.46C489.249 496.527 484.569 491.067 478.502 487.08C472.435 483.093 465.069 481.1 456.402 481.1C446.522 481.1 438.029 483.267 430.922 487.6C423.989 491.933 418.702 497.913 415.062 505.54C411.422 512.993 409.602 521.487 409.602 531.02C409.602 540.553 411.769 549.047 416.102 556.5C420.435 563.953 426.415 569.847 434.042 574.18C441.669 578.513 450.422 580.68 460.302 580.68C465.675 580.68 471.135 579.727 476.682 577.82C482.402 575.74 486.995 573.4 490.462 570.8C493.062 568.893 495.835 567.94 498.782 567.94C501.902 567.767 504.589 568.633 506.842 570.54C509.789 573.14 511.349 576 511.522 579.12C511.695 582.24 510.309 584.927 507.362 587.18C501.469 591.86 494.102 595.673 485.262 598.62C476.595 601.567 468.275 603.04 460.302 603.04ZM626.466 603.04C612.946 603.04 600.813 599.92 590.066 593.68C579.32 587.267 570.826 578.6 564.586 567.68C558.346 556.76 555.14 544.453 554.966 530.76V412.2C554.966 408.213 556.18 405.007 558.606 402.58C561.206 400.153 564.413 398.94 568.226 398.94C572.213 398.94 575.42 400.153 577.846 402.58C580.273 405.007 581.486 408.213 581.486 412.2V482.4C587.553 475.12 594.833 469.4 603.326 465.24C611.993 460.907 621.44 458.74 631.666 458.74C644.32 458.74 655.673 461.947 665.726 468.36C675.78 474.6 683.666 483.18 689.386 494.1C695.28 504.847 698.226 517.067 698.226 530.76C698.226 544.453 695.02 556.76 688.606 567.68C682.366 578.6 673.873 587.267 663.126 593.68C652.38 599.92 640.16 603.04 626.466 603.04ZM626.466 579.64C635.306 579.64 643.193 577.56 650.126 573.4C657.06 569.067 662.52 563.173 666.506 555.72C670.666 548.267 672.746 539.947 672.746 530.76C672.746 521.4 670.666 513.08 666.506 505.8C662.52 498.52 657.06 492.8 650.126 488.64C643.193 484.307 635.306 482.14 626.466 482.14C617.8 482.14 609.913 484.307 602.806 488.64C595.873 492.8 590.413 498.52 586.426 505.8C582.44 513.08 580.446 521.4 580.446 530.76C580.446 539.947 582.44 548.267 586.426 555.72C590.413 563.173 595.873 569.067 602.806 573.4C609.913 577.56 617.8 579.64 626.466 579.64ZM755.388 664.4C753.654 664.4 751.574 663.88 749.148 662.84C741.521 659.373 739.441 653.913 742.908 646.46L822.208 467.32C825.674 460.04 831.134 457.96 838.588 461.08C846.388 464.373 848.554 469.833 845.088 477.46L765.528 656.34C763.448 661.713 760.068 664.4 755.388 664.4ZM786.068 596.28C782.774 597.667 779.654 597.84 776.708 596.8C773.934 595.587 771.681 593.333 769.948 590.04L710.408 476.94C708.674 473.647 708.414 470.527 709.628 467.58C711.014 464.46 713.354 462.207 716.648 460.82C719.941 459.433 723.061 459.347 726.008 460.56C728.954 461.6 731.208 463.767 732.768 467.06L789.708 580.16C791.441 583.453 792.048 586.66 791.528 589.78C791.181 592.727 789.361 594.893 786.068 596.28Z"></path>
</mask><path d="M242.16 602C239.387 602 236.787 601.22 234.36 599.66C232.107 597.927 230.547 595.847 229.68 593.42L191.2 477.98C189.813 472.607 189.813 468.273 191.2 464.98C192.76 461.513 196.053 459.78 201.08 459.78C204.373 459.78 207.06 460.733 209.14 462.64C211.393 464.373 213.213 467.407 214.6 471.74L247.36 574.18H238.26L269.2 469.66C270.067 466.713 271.54 464.373 273.62 462.64C275.7 460.733 278.56 459.78 282.2 459.78C285.667 459.78 288.44 460.733 290.52 462.64C292.773 464.373 294.247 466.713 294.94 469.66L320.16 567.94H316.26L346.94 471.74C349.367 463.767 353.873 459.78 360.46 459.78C365.313 459.78 368.607 461.513 370.34 464.98C372.073 468.273 371.987 472.607 370.08 477.98L331.6 593.42C330.907 595.847 329.433 597.927 327.18 599.66C324.927 601.22 322.327 602 319.38 602C316.607 602 314.007 601.22 311.58 599.66C309.153 597.927 307.593 595.847 306.9 593.42L280.12 494.36H282.72L254.64 593.42C253.947 595.847 252.387 597.927 249.96 599.66C247.707 601.22 245.107 602 242.16 602ZM460.302 603.04C445.915 603.04 433.089 600.007 421.822 593.94C410.729 587.7 401.975 579.207 395.562 568.46C389.322 557.54 386.202 545.06 386.202 531.02C386.202 516.807 389.149 504.327 395.042 493.58C401.109 482.66 409.429 474.167 420.002 468.1C430.575 461.86 442.709 458.74 456.402 458.74C469.922 458.74 481.535 461.773 491.242 467.84C500.949 473.733 508.315 481.967 513.342 492.54C518.542 502.94 521.142 514.987 521.142 528.68C521.142 531.973 520.015 534.747 517.762 537C515.509 539.08 512.649 540.12 509.182 540.12H404.402V519.32H508.402L497.742 526.6C497.569 517.933 495.835 510.22 492.542 503.46C489.249 496.527 484.569 491.067 478.502 487.08C472.435 483.093 465.069 481.1 456.402 481.1C446.522 481.1 438.029 483.267 430.922 487.6C423.989 491.933 418.702 497.913 415.062 505.54C411.422 512.993 409.602 521.487 409.602 531.02C409.602 540.553 411.769 549.047 416.102 556.5C420.435 563.953 426.415 569.847 434.042 574.18C441.669 578.513 450.422 580.68 460.302 580.68C465.675 580.68 471.135 579.727 476.682 577.82C482.402 575.74 486.995 573.4 490.462 570.8C493.062 568.893 495.835 567.94 498.782 567.94C501.902 567.767 504.589 568.633 506.842 570.54C509.789 573.14 511.349 576 511.522 579.12C511.695 582.24 510.309 584.927 507.362 587.18C501.469 591.86 494.102 595.673 485.262 598.62C476.595 601.567 468.275 603.04 460.302 603.04ZM626.466 603.04C612.946 603.04 600.813 599.92 590.066 593.68C579.32 587.267 570.826 578.6 564.586 567.68C558.346 556.76 555.14 544.453 554.966 530.76V412.2C554.966 408.213 556.18 405.007 558.606 402.58C561.206 400.153 564.413 398.94 568.226 398.94C572.213 398.94 575.42 400.153 577.846 402.58C580.273 405.007 581.486 408.213 581.486 412.2V482.4C587.553 475.12 594.833 469.4 603.326 465.24C611.993 460.907 621.44 458.74 631.666 458.74C644.32 458.74 655.673 461.947 665.726 468.36C675.78 474.6 683.666 483.18 689.386 494.1C695.28 504.847 698.226 517.067 698.226 530.76C698.226 544.453 695.02 556.76 688.606 567.68C682.366 578.6 673.873 587.267 663.126 593.68C652.38 599.92 640.16 603.04 626.466 603.04ZM626.466 579.64C635.306 579.64 643.193 577.56 650.126 573.4C657.06 569.067 662.52 563.173 666.506 555.72C670.666 548.267 672.746 539.947 672.746 530.76C672.746 521.4 670.666 513.08 666.506 505.8C662.52 498.52 657.06 492.8 650.126 488.64C643.193 484.307 635.306 482.14 626.466 482.14C617.8 482.14 609.913 484.307 602.806 488.64C595.873 492.8 590.413 498.52 586.426 505.8C582.44 513.08 580.446 521.4 580.446 530.76C580.446 539.947 582.44 548.267 586.426 555.72C590.413 563.173 595.873 569.067 602.806 573.4C609.913 577.56 617.8 579.64 626.466 579.64ZM755.388 664.4C753.654 664.4 751.574 663.88 749.148 662.84C741.521 659.373 739.441 653.913 742.908 646.46L822.208 467.32C825.674 460.04 831.134 457.96 838.588 461.08C846.388 464.373 848.554 469.833 845.088 477.46L765.528 656.34C763.448 661.713 760.068 664.4 755.388 664.4ZM786.068 596.28C782.774 597.667 779.654 597.84 776.708 596.8C773.934 595.587 771.681 593.333 769.948 590.04L710.408 476.94C708.674 473.647 708.414 470.527 709.628 467.58C711.014 464.46 713.354 462.207 716.648 460.82C719.941 459.433 723.061 459.347 726.008 460.56C728.954 461.6 731.208 463.767 732.768 467.06L789.708 580.16C791.441 583.453 792.048 586.66 791.528 589.78C791.181 592.727 789.361 594.893 786.068 596.28Z" fill="#001BA4"></path><path d="M234.36 599.66L229.482 606.001L229.75 606.207L230.034 606.389L234.36 599.66ZM229.68 593.42L222.091 595.95L222.117 596.031L222.146 596.111L229.68 593.42ZM191.2 477.98L183.454 479.979L183.523 480.247L183.611 480.51L191.2 477.98ZM191.2 464.98L183.905 461.697L183.865 461.786L183.827 461.876L191.2 464.98ZM209.14 462.64L203.734 468.537L203.989 468.771L204.262 468.981L209.14 462.64ZM214.6 471.74L222.22 469.303L222.219 469.302L214.6 471.74ZM247.36 574.18V582.18H258.318L254.98 571.743L247.36 574.18ZM238.26 574.18L230.589 571.909L227.549 582.18H238.26V574.18ZM269.2 469.66L276.871 471.931L276.875 471.917L269.2 469.66ZM273.62 462.64L278.741 468.786L278.887 468.665L279.026 468.537L273.62 462.64ZM290.52 462.64L285.114 468.537L285.369 468.771L285.642 468.981L290.52 462.64ZM294.94 469.66L287.153 471.492L287.171 471.571L287.191 471.648L294.94 469.66ZM320.16 567.94V575.94H330.472L327.909 565.952L320.16 567.94ZM316.26 567.94L308.638 565.509L305.312 575.94H316.26V567.94ZM346.94 471.74L354.562 474.171L354.578 474.12L354.593 474.069L346.94 471.74ZM370.34 464.98L363.185 468.558L363.222 468.632L363.261 468.706L370.34 464.98ZM370.08 477.98L362.541 475.305L362.515 475.377L362.491 475.45L370.08 477.98ZM331.6 593.42L324.011 590.89L323.956 591.055L323.908 591.222L331.6 593.42ZM327.18 599.66L331.734 606.238L331.899 606.123L332.058 606.001L327.18 599.66ZM311.58 599.66L306.93 606.17L307.089 606.284L307.254 606.389L311.58 599.66ZM306.9 593.42L299.177 595.508L299.192 595.563L299.208 595.618L306.9 593.42ZM280.12 494.36V486.36H269.67L272.397 496.448L280.12 494.36ZM282.72 494.36L290.417 496.542L293.303 486.36H282.72V494.36ZM254.64 593.42L262.332 595.618L262.334 595.61L262.337 595.602L254.64 593.42ZM249.96 599.66L254.514 606.238L254.562 606.204L254.61 606.17L249.96 599.66ZM242.16 602V594C240.984 594 239.877 593.696 238.686 592.931L234.36 599.66L230.034 606.389C233.696 608.744 237.789 610 242.16 610V602ZM234.36 599.66L239.238 593.319C238.071 592.422 237.511 591.562 237.214 590.729L229.68 593.42L222.146 596.111C223.582 600.131 226.142 603.431 229.482 606.001L234.36 599.66ZM229.68 593.42L237.269 590.89L198.789 475.45L191.2 477.98L183.611 480.51L222.091 595.95L229.68 593.42ZM191.2 477.98L198.946 475.981C197.77 471.423 198.15 469.089 198.573 468.084L191.2 464.98L183.827 461.876C181.476 467.458 181.857 473.79 183.454 479.979L191.2 477.98ZM191.2 464.98L198.495 468.263C198.55 468.141 198.575 468.13 198.543 468.164C198.51 468.199 198.499 468.195 198.566 468.159C198.732 468.072 199.43 467.78 201.08 467.78V459.78V451.78C194.119 451.78 187.19 454.396 183.905 461.697L191.2 464.98ZM201.08 459.78V467.78C202.728 467.78 203.373 468.206 203.734 468.537L209.14 462.64L214.546 456.743C210.747 453.261 206.018 451.78 201.08 451.78V459.78ZM209.14 462.64L204.262 468.981C204.663 469.289 205.817 470.541 206.981 474.178L214.6 471.74L222.219 469.302C220.61 464.273 218.124 459.458 214.018 456.299L209.14 462.64ZM214.6 471.74L206.98 474.177L239.74 576.617L247.36 574.18L254.98 571.743L222.22 469.303L214.6 471.74ZM247.36 574.18V566.18H238.26V574.18V582.18H247.36V574.18ZM238.26 574.18L245.931 576.451L276.871 471.931L269.2 469.66L261.529 467.389L230.589 571.909L238.26 574.18ZM269.2 469.66L276.875 471.917C277.356 470.28 278.038 469.372 278.741 468.786L273.62 462.64L268.499 456.494C265.042 459.374 262.777 463.147 261.525 467.403L269.2 469.66ZM273.62 462.64L279.026 468.537C279.242 468.339 279.963 467.78 282.2 467.78V459.78V451.78C277.157 451.78 272.158 453.127 268.214 456.743L273.62 462.64ZM282.2 459.78V467.78C284.145 467.78 284.829 468.276 285.114 468.537L290.52 462.64L295.926 456.743C292.051 453.191 287.189 451.78 282.2 451.78V459.78ZM290.52 462.64L285.642 468.981C286.337 469.515 286.852 470.214 287.153 471.492L294.94 469.66L302.727 467.828C301.642 463.213 299.21 459.231 295.398 456.299L290.52 462.64ZM294.94 469.66L287.191 471.648L312.411 569.928L320.16 567.94L327.909 565.952L302.689 467.672L294.94 469.66ZM320.16 567.94V559.94H316.26V567.94V575.94H320.16V567.94ZM316.26 567.94L323.882 570.371L354.562 474.171L346.94 471.74L339.318 469.309L308.638 565.509L316.26 567.94ZM346.94 471.74L354.593 474.069C355.535 470.975 356.643 469.467 357.441 468.762C358.088 468.189 358.92 467.78 360.46 467.78V459.78V451.78C355.414 451.78 350.698 453.364 346.839 456.778C343.13 460.059 340.771 464.532 339.287 469.411L346.94 471.74ZM360.46 459.78V467.78C361.97 467.78 362.642 468.053 362.844 468.159C362.938 468.209 362.975 468.244 362.996 468.265C363.019 468.289 363.089 468.367 363.185 468.558L370.34 464.98L377.495 461.402C374.041 454.494 367.429 451.78 360.46 451.78V459.78ZM370.34 464.98L363.261 468.706C363.509 469.178 364.095 470.925 362.541 475.305L370.08 477.98L377.619 480.655C379.879 474.288 380.637 467.368 377.419 461.254L370.34 464.98ZM370.08 477.98L362.491 475.45L324.011 590.89L331.6 593.42L339.189 595.95L377.669 480.51L370.08 477.98ZM331.6 593.42L323.908 591.222C323.744 591.797 323.378 592.492 322.302 593.319L327.18 599.66L332.058 606.001C335.489 603.362 338.07 599.896 339.292 595.618L331.6 593.42ZM327.18 599.66L322.626 593.082C321.813 593.646 320.828 594 319.38 594V602V610C323.825 610 328.04 608.794 331.734 606.238L327.18 599.66ZM319.38 602V594C318.204 594 317.097 593.696 315.906 592.931L311.58 599.66L307.254 606.389C310.916 608.744 315.009 610 319.38 610V602ZM311.58 599.66L316.23 593.15C314.997 592.27 314.702 591.606 314.592 591.222L306.9 593.42L299.208 595.618C300.485 600.087 303.309 603.584 306.93 606.17L311.58 599.66ZM306.9 593.42L314.623 591.332L287.843 492.272L280.12 494.36L272.397 496.448L299.177 595.508L306.9 593.42ZM280.12 494.36V502.36H282.72V494.36V486.36H280.12V494.36ZM282.72 494.36L275.023 492.178L246.943 591.238L254.64 593.42L262.337 595.602L290.417 496.542L282.72 494.36ZM254.64 593.42L246.948 591.222C246.838 591.606 246.543 592.27 245.31 593.15L249.96 599.66L254.61 606.17C258.231 603.584 261.055 600.087 262.332 595.618L254.64 593.42ZM249.96 599.66L245.406 593.082C244.593 593.646 243.608 594 242.16 594V602V610C246.605 610 250.82 608.794 254.514 606.238L249.96 599.66ZM421.822 593.94L417.9 600.913L417.964 600.949L418.029 600.984L421.822 593.94ZM395.562 568.46L388.616 572.429L388.654 572.495L388.692 572.56L395.562 568.46ZM395.042 493.58L388.049 489.695L388.038 489.714L388.028 489.733L395.042 493.58ZM420.002 468.1L423.983 475.039L424.026 475.015L424.068 474.99L420.002 468.1ZM491.242 467.84L487.002 474.624L487.046 474.651L487.09 474.678L491.242 467.84ZM513.342 492.54L506.117 495.975L506.151 496.047L506.187 496.118L513.342 492.54ZM517.762 537L523.188 542.878L523.306 542.77L523.419 542.657L517.762 537ZM404.402 540.12H396.402V548.12H404.402V540.12ZM404.402 519.32V511.32H396.402V519.32H404.402ZM508.402 519.32L512.914 525.926L534.302 511.32H508.402V519.32ZM497.742 526.6L489.744 526.76L490.039 541.548L502.254 533.206L497.742 526.6ZM492.542 503.46L485.316 506.892L485.333 506.928L485.35 506.964L492.542 503.46ZM430.922 487.6L426.757 480.77L426.719 480.793L426.682 480.816L430.922 487.6ZM415.062 505.54L422.251 509.051L422.266 509.018L422.282 508.986L415.062 505.54ZM416.102 556.5L409.186 560.521V560.521L416.102 556.5ZM434.042 574.18L437.994 567.224V567.224L434.042 574.18ZM476.682 577.82L479.283 585.385L479.35 585.363L479.416 585.338L476.682 577.82ZM490.462 570.8L485.731 564.349L485.696 564.374L485.662 564.4L490.462 570.8ZM498.782 567.94V575.94H499.004L499.226 575.928L498.782 567.94ZM506.842 570.54L512.135 564.541L512.073 564.486L512.01 564.433L506.842 570.54ZM511.522 579.12L519.51 578.676V578.676L511.522 579.12ZM507.362 587.18L502.502 580.825L502.444 580.87L502.387 580.915L507.362 587.18ZM485.262 598.62L482.732 591.031L482.709 591.038L482.687 591.046L485.262 598.62ZM460.302 603.04V595.04C447.072 595.04 435.577 592.261 425.615 586.896L421.822 593.94L418.029 600.984C430.6 607.753 444.758 611.04 460.302 611.04V603.04ZM421.822 593.94L425.744 586.967C415.845 581.399 408.117 573.887 402.432 564.36L395.562 568.46L388.692 572.56C395.833 584.526 405.612 594.001 417.9 600.913L421.822 593.94ZM395.562 568.46L402.508 564.491C397.036 554.916 394.202 543.833 394.202 531.02H386.202H378.202C378.202 546.287 381.608 560.164 388.616 572.429L395.562 568.46ZM386.202 531.02H394.202C394.202 517.935 396.906 506.818 402.057 497.427L395.042 493.58L388.028 489.733C381.391 501.835 378.202 515.678 378.202 531.02H386.202ZM395.042 493.58L402.035 497.465C407.413 487.785 414.706 480.362 423.983 475.039L420.002 468.1L416.021 461.161C404.152 467.971 394.804 477.535 388.049 489.695L395.042 493.58ZM420.002 468.1L424.068 474.99C433.272 469.558 443.97 466.74 456.402 466.74V458.74V450.74C441.448 450.74 427.879 454.162 415.936 461.21L420.002 468.1ZM456.402 458.74V466.74C468.698 466.74 478.782 469.486 487.002 474.624L491.242 467.84L495.482 461.056C484.289 454.06 471.146 450.74 456.402 450.74V458.74ZM491.242 467.84L487.09 474.678C495.419 479.735 501.739 486.765 506.117 495.975L513.342 492.54L520.567 489.105C514.892 477.168 506.478 467.731 495.394 461.002L491.242 467.84ZM513.342 492.54L506.187 496.118C510.741 505.226 513.142 516.009 513.142 528.68H521.142H529.142C529.142 513.964 526.343 500.654 520.497 488.962L513.342 492.54ZM521.142 528.68H513.142C513.142 529.931 512.803 530.645 512.105 531.343L517.762 537L523.419 542.657C527.228 538.848 529.142 534.016 529.142 528.68H521.142ZM517.762 537L512.336 531.122C511.755 531.657 510.92 532.12 509.182 532.12V540.12V548.12C514.377 548.12 519.262 546.503 523.188 542.878L517.762 537ZM509.182 540.12V532.12H404.402V540.12V548.12H509.182V540.12ZM404.402 540.12H412.402V519.32H404.402H396.402V540.12H404.402ZM404.402 519.32V527.32H508.402V519.32V511.32H404.402V519.32ZM508.402 519.32L503.89 512.714L493.23 519.994L497.742 526.6L502.254 533.206L512.914 525.926L508.402 519.32ZM497.742 526.6L505.74 526.44C505.547 516.79 503.607 507.907 499.734 499.956L492.542 503.46L485.35 506.964C488.063 512.533 489.59 519.077 489.744 526.76L497.742 526.6ZM492.542 503.46L499.768 500.028C495.884 491.85 490.258 485.232 482.895 480.394L478.502 487.08L474.109 493.766C478.88 496.901 482.613 501.203 485.316 506.892L492.542 503.46ZM478.502 487.08L482.895 480.394C475.289 475.396 466.323 473.1 456.402 473.1V481.1V489.1C463.815 489.1 469.582 490.791 474.109 493.766L478.502 487.08ZM456.402 481.1V473.1C445.33 473.1 435.336 475.539 426.757 480.77L430.922 487.6L435.087 494.43C440.722 490.995 447.714 489.1 456.402 489.1V481.1ZM430.922 487.6L426.682 480.816C418.413 485.984 412.115 493.143 407.842 502.094L415.062 505.54L422.282 508.986C425.29 502.684 429.564 497.883 435.162 494.384L430.922 487.6ZM415.062 505.54L407.873 502.029C403.625 510.728 401.602 520.452 401.602 531.02H409.602H417.602C417.602 522.521 419.219 515.258 422.251 509.051L415.062 505.54ZM409.602 531.02H401.602C401.602 541.813 404.069 551.72 409.186 560.521L416.102 556.5L423.018 552.479C419.468 546.373 417.602 539.294 417.602 531.02H409.602ZM416.102 556.5L409.186 560.521C414.243 569.22 421.256 576.116 430.09 581.136L434.042 574.18L437.994 567.224C431.575 563.577 426.627 558.687 423.018 552.479L416.102 556.5ZM434.042 574.18L430.09 581.136C439.067 586.236 449.215 588.68 460.302 588.68V580.68V572.68C451.629 572.68 444.27 570.79 437.994 567.224L434.042 574.18ZM460.302 580.68V588.68C466.638 588.68 472.976 587.554 479.283 585.385L476.682 577.82L474.081 570.255C469.295 571.9 464.713 572.68 460.302 572.68V580.68ZM476.682 577.82L479.416 585.338C485.602 583.089 490.968 580.42 495.262 577.2L490.462 570.8L485.662 564.4C483.023 566.38 479.202 568.391 473.948 570.302L476.682 577.82ZM490.462 570.8L495.193 577.251C496.557 576.251 497.698 575.94 498.782 575.94V567.94V559.94C493.972 559.94 489.567 561.536 485.731 564.349L490.462 570.8ZM498.782 567.94L499.226 575.928C500.436 575.86 501.08 576.144 501.674 576.647L506.842 570.54L512.01 564.433C508.097 561.122 503.369 559.673 498.338 559.952L498.782 567.94ZM506.842 570.54L501.549 576.539C503.327 578.108 503.509 579.1 503.534 579.564L511.522 579.12L519.51 578.676C519.189 572.9 516.25 568.172 512.135 564.541L506.842 570.54ZM511.522 579.12L503.534 579.564C503.541 579.684 503.53 579.736 503.529 579.742C503.528 579.748 503.525 579.764 503.503 579.806C503.461 579.888 503.245 580.257 502.502 580.825L507.362 587.18L512.222 593.535C516.82 590.019 519.859 584.962 519.51 578.676L511.522 579.12ZM507.362 587.18L502.387 580.915C497.376 584.894 490.889 588.312 482.732 591.031L485.262 598.62L487.792 606.209C497.315 603.035 505.561 598.826 512.337 593.445L507.362 587.18ZM485.262 598.62L482.687 591.046C474.729 593.752 467.28 595.04 460.302 595.04V603.04V611.04C469.27 611.04 478.462 609.382 487.837 606.194L485.262 598.62ZM590.066 593.68L585.967 600.55L586.008 600.574L586.049 600.598L590.066 593.68ZM564.586 567.68L557.64 571.649V571.649L564.586 567.68ZM554.966 530.76H546.966V530.811L546.967 530.861L554.966 530.76ZM558.606 402.58L553.148 396.732L553.047 396.826L552.95 396.923L558.606 402.58ZM581.486 482.4H573.486V504.496L587.632 487.521L581.486 482.4ZM603.326 465.24L606.845 472.424L606.875 472.41L606.904 472.395L603.326 465.24ZM665.726 468.36L661.424 475.104L661.466 475.131L661.508 475.157L665.726 468.36ZM689.386 494.1L682.3 497.812L682.335 497.88L682.372 497.947L689.386 494.1ZM688.606 567.68L681.708 563.629L681.684 563.67L681.66 563.711L688.606 567.68ZM663.126 593.68L667.143 600.598L667.185 600.574L667.226 600.55L663.126 593.68ZM650.126 573.4L654.242 580.26L654.305 580.223L654.366 580.184L650.126 573.4ZM666.506 555.72L659.521 551.821L659.486 551.884L659.452 551.947L666.506 555.72ZM666.506 505.8L659.49 509.643L659.524 509.706L659.56 509.769L666.506 505.8ZM650.126 488.64L645.886 495.424L645.948 495.463L646.01 495.5L650.126 488.64ZM602.806 488.64L606.922 495.5L606.947 495.485L606.971 495.47L602.806 488.64ZM586.426 505.8L593.443 509.643V509.643L586.426 505.8ZM586.426 555.72L579.372 559.493V559.493L586.426 555.72ZM602.806 573.4L598.566 580.184L598.665 580.245L598.765 580.304L602.806 573.4ZM626.466 603.04V595.04C614.229 595.04 603.504 592.232 594.083 586.762L590.066 593.68L586.049 600.598C598.122 607.608 611.663 611.04 626.466 611.04V603.04ZM590.066 593.68L594.166 586.81C584.608 581.106 577.093 573.441 571.532 563.711L564.586 567.68L557.64 571.649C564.56 583.759 574.031 593.427 585.967 600.55L590.066 593.68ZM564.586 567.68L571.532 563.711C566.025 554.073 563.123 543.118 562.966 530.659L554.966 530.76L546.967 530.861C547.156 545.789 550.668 559.447 557.64 571.649L564.586 567.68ZM554.966 530.76H562.966V412.2H554.966H546.966V530.76H554.966ZM554.966 412.2H562.966C562.966 409.964 563.58 408.92 564.263 408.237L558.606 402.58L552.95 396.923C548.779 401.093 546.966 406.462 546.966 412.2H554.966ZM558.606 402.58L564.065 408.428C565.07 407.49 566.279 406.94 568.226 406.94V398.94V390.94C562.547 390.94 557.342 392.817 553.148 396.732L558.606 402.58ZM568.226 398.94V406.94C570.462 406.94 571.507 407.554 572.19 408.237L577.846 402.58L583.503 396.923C579.333 392.753 573.964 390.94 568.226 390.94V398.94ZM577.846 402.58L572.19 408.237C572.873 408.92 573.486 409.964 573.486 412.2H581.486H589.486C589.486 406.462 587.674 401.093 583.503 396.923L577.846 402.58ZM581.486 412.2H573.486V482.4H581.486H589.486V412.2H581.486ZM581.486 482.4L587.632 487.521C592.98 481.105 599.365 476.088 606.845 472.424L603.326 465.24L599.807 458.055C590.301 462.712 582.126 469.135 575.341 477.279L581.486 482.4ZM603.326 465.24L606.904 472.395C614.398 468.648 622.611 466.74 631.666 466.74V458.74V450.74C620.268 450.74 609.588 453.165 599.749 458.085L603.326 465.24ZM631.666 458.74V466.74C642.893 466.74 652.736 469.562 661.424 475.104L665.726 468.36L670.029 461.615C658.611 454.331 645.747 450.74 631.666 450.74V458.74ZM665.726 468.36L661.508 475.157C670.295 480.611 677.214 488.103 682.3 497.812L689.386 494.1L696.473 490.388C690.119 478.257 681.265 468.589 669.945 461.563L665.726 468.36ZM689.386 494.1L682.372 497.947C687.546 507.381 690.226 518.251 690.226 530.76H698.226H706.226C706.226 515.883 703.014 502.312 696.401 490.253L689.386 494.1ZM698.226 530.76H690.226C690.226 543.149 687.342 554.036 681.708 563.629L688.606 567.68L695.505 571.731C702.698 559.484 706.226 545.758 706.226 530.76H698.226ZM688.606 567.68L681.66 563.711C676.1 573.441 668.585 581.106 659.027 586.81L663.126 593.68L667.226 600.55C679.161 593.427 688.633 583.759 695.552 571.649L688.606 567.68ZM663.126 593.68L659.109 586.762C649.705 592.223 638.896 595.04 626.466 595.04V603.04V611.04C641.423 611.04 655.055 607.617 667.143 600.598L663.126 593.68ZM626.466 579.64V587.64C636.617 587.64 645.951 585.235 654.242 580.26L650.126 573.4L646.01 566.54C640.435 569.885 633.996 571.64 626.466 571.64V579.64ZM650.126 573.4L654.366 580.184C662.526 575.084 668.938 568.135 673.561 559.493L666.506 555.72L659.452 551.947C656.101 558.211 651.594 563.049 645.886 566.616L650.126 573.4ZM666.506 555.72L673.492 559.619C678.368 550.883 680.746 541.204 680.746 530.76H672.746H664.746C664.746 538.689 662.965 545.65 659.521 551.821L666.506 555.72ZM672.746 530.76H680.746C680.746 520.173 678.381 510.456 673.452 501.831L666.506 505.8L659.56 509.769C662.952 515.704 664.746 522.627 664.746 530.76H672.746ZM666.506 505.8L673.523 501.957C668.873 493.467 662.427 486.691 654.242 481.78L650.126 488.64L646.01 495.5C651.693 498.909 656.166 503.573 659.49 509.643L666.506 505.8ZM650.126 488.64L654.366 481.856C646.058 476.663 636.679 474.14 626.466 474.14V482.14V490.14C633.934 490.14 640.328 491.95 645.886 495.424L650.126 488.64ZM626.466 482.14V474.14C616.394 474.14 607.056 476.679 598.642 481.81L602.806 488.64L606.971 495.47C612.77 491.934 619.206 490.14 626.466 490.14V482.14ZM602.806 488.64L598.69 481.78C590.506 486.691 584.059 493.467 579.41 501.957L586.426 505.8L593.443 509.643C596.767 503.573 601.24 498.909 606.922 495.5L602.806 488.64ZM586.426 505.8L579.41 501.957C574.699 510.559 572.446 520.231 572.446 530.76H580.446H588.446C588.446 522.569 590.18 515.601 593.443 509.643L586.426 505.8ZM580.446 530.76H572.446C572.446 541.146 574.712 550.78 579.372 559.493L586.426 555.72L593.481 551.947C590.168 545.753 588.446 538.747 588.446 530.76H580.446ZM586.426 555.72L579.372 559.493C583.995 568.135 590.407 575.084 598.566 580.184L602.806 573.4L607.046 566.616C601.339 563.049 596.832 558.211 593.481 551.947L586.426 555.72ZM602.806 573.4L598.765 580.304C607.163 585.22 616.457 587.64 626.466 587.64V579.64V571.64C619.143 571.64 612.663 569.9 606.848 566.496L602.806 573.4ZM749.148 662.84L745.837 670.123L745.917 670.159L745.996 670.193L749.148 662.84ZM742.908 646.46L750.162 649.834L750.193 649.766L750.223 649.698L742.908 646.46ZM822.208 467.32L814.985 463.881L814.937 463.98L814.893 464.082L822.208 467.32ZM838.588 461.08L841.7 453.71L841.688 453.705L841.677 453.7L838.588 461.08ZM845.088 477.46L837.805 474.15L837.791 474.179L837.778 474.209L845.088 477.46ZM765.528 656.34L758.218 653.089L758.138 653.269L758.067 653.452L765.528 656.34ZM786.068 596.28L789.172 603.653V603.653L786.068 596.28ZM776.708 596.8L773.501 604.129L773.769 604.247L774.045 604.344L776.708 596.8ZM769.948 590.04L777.027 586.314L777.027 586.313L769.948 590.04ZM710.408 476.94L703.328 480.666L703.329 480.667L710.408 476.94ZM709.628 467.58L702.317 464.331L702.272 464.432L702.23 464.534L709.628 467.58ZM716.648 460.82L713.543 453.447L713.543 453.447L716.648 460.82ZM726.008 460.56L722.962 467.957L723.152 468.036L723.345 468.104L726.008 460.56ZM732.768 467.06L725.538 470.485L725.579 470.572L725.622 470.657L732.768 467.06ZM789.708 580.16L782.562 583.757L782.595 583.822L782.628 583.886L789.708 580.16ZM791.528 589.78L783.637 588.465L783.605 588.654L783.583 588.845L791.528 589.78ZM755.388 664.4V656.4C755.153 656.4 754.2 656.301 752.299 655.487L749.148 662.84L745.996 670.193C748.949 671.459 752.156 672.4 755.388 672.4V664.4ZM749.148 662.84L752.458 655.557C749.728 654.316 749.36 653.34 749.344 653.297C749.342 653.292 748.962 652.413 750.162 649.834L742.908 646.46L735.654 643.086C733.387 647.961 732.314 653.538 734.392 658.993C736.456 664.41 740.941 667.897 745.837 670.123L749.148 662.84ZM742.908 646.46L750.223 649.698L829.523 470.558L822.208 467.32L814.893 464.082L735.593 643.222L742.908 646.46ZM822.208 467.32L829.431 470.759C830.62 468.262 831.575 467.843 831.751 467.776C831.93 467.708 832.932 467.385 835.499 468.46L838.588 461.08L841.677 453.7C836.79 451.655 831.336 450.812 826.055 452.824C820.771 454.837 817.262 459.098 814.985 463.881L822.208 467.32ZM838.588 461.08L835.476 468.45C836.843 469.027 837.651 469.571 838.102 469.967C838.521 470.335 838.609 470.551 838.627 470.596C838.643 470.638 838.722 470.837 838.671 471.355C838.615 471.919 838.404 472.832 837.805 474.15L845.088 477.46L852.371 480.77C854.615 475.833 855.675 470.178 853.499 464.694C851.331 459.233 846.698 455.82 841.7 453.71L838.588 461.08ZM845.088 477.46L837.778 474.209L758.218 653.089L765.528 656.34L772.837 659.591L852.397 480.711L845.088 477.46ZM765.528 656.34L758.067 653.452C757.374 655.242 756.72 655.911 756.455 656.122C756.302 656.244 756.082 656.4 755.388 656.4V664.4V672.4C759.374 672.4 763.184 671.213 766.411 668.648C769.525 666.172 771.601 662.811 772.988 659.228L765.528 656.34ZM786.068 596.28L782.963 588.907C781.222 589.64 780.171 589.539 779.37 589.256L776.708 596.8L774.045 604.344C779.138 606.141 784.327 605.693 789.172 603.653L786.068 596.28ZM776.708 596.8L779.914 589.471C779.157 589.139 778.115 588.381 777.027 586.314L769.948 590.04L762.868 593.766C765.247 598.286 768.712 602.034 773.501 604.129L776.708 596.8ZM769.948 590.04L777.027 586.313L717.487 473.213L710.408 476.94L703.329 480.667L762.869 593.767L769.948 590.04ZM710.408 476.94L717.487 473.214C716.652 471.627 716.871 471.001 717.025 470.626L709.628 467.58L702.23 464.534C699.958 470.052 700.697 475.666 703.328 480.666L710.408 476.94ZM709.628 467.58L716.938 470.829C717.457 469.662 718.238 468.831 719.752 468.193L716.648 460.82L713.543 453.447C708.471 455.583 704.572 459.258 702.317 464.331L709.628 467.58ZM716.648 460.82L719.752 468.193C721.341 467.524 722.234 467.658 722.962 467.957L726.008 460.56L729.054 453.163C723.889 451.036 718.541 451.343 713.543 453.447L716.648 460.82ZM726.008 460.56L723.345 468.104C723.947 468.316 724.727 468.772 725.538 470.485L732.768 467.06L739.998 463.635C737.689 458.761 733.962 454.884 728.67 453.016L726.008 460.56ZM732.768 467.06L725.622 470.657L782.562 583.757L789.708 580.16L796.853 576.563L739.913 463.463L732.768 467.06ZM789.708 580.16L782.628 583.886C783.697 585.916 783.821 587.36 783.637 588.465L791.528 589.78L799.419 591.095C800.275 585.96 799.186 580.991 796.787 576.434L789.708 580.16ZM791.528 589.78L783.583 588.845C783.578 588.881 783.581 588.827 783.626 588.723C783.671 588.615 783.73 588.525 783.777 588.469C783.87 588.359 783.74 588.58 782.963 588.907L786.068 596.28L789.172 603.653C794.479 601.419 798.716 597.153 799.473 590.715L791.528 589.78Z" fill="#001BA4" mask="url(#path-3-outside-1_102_4)"></path></svg></g></g><defs><clipPath id="SvgjsClipPath1076"><rect width="1000" height="1000" x="0" y="0" rx="500" ry="500"></rect></clipPath></defs></svg>