<svg width="1024" height="1024" viewBox="0 0 1024 1024" fill="none" xmlns="http://www.w3.org/2000/svg">
<circle cx="512" cy="512" r="413" stroke="#001BA4" stroke-width="60"/>
<path d="M242.16 602C239.387 602 236.787 601.22 234.36 599.66C232.107 597.927 230.547 595.847 229.68 593.42L191.2 477.98C189.813 472.607 189.813 468.273 191.2 464.98C192.76 461.513 196.053 459.78 201.08 459.78C204.373 459.78 207.06 460.733 209.14 462.64C211.393 464.373 213.213 467.407 214.6 471.74L247.36 574.18H238.26L269.2 469.66C270.067 466.713 271.54 464.373 273.62 462.64C275.7 460.733 278.56 459.78 282.2 459.78C285.667 459.78 288.44 460.733 290.52 462.64C292.773 464.373 294.247 466.713 294.94 469.66L320.16 567.94H316.26L346.94 471.74C349.367 463.767 353.873 459.78 360.46 459.78C365.313 459.78 368.607 461.513 370.34 464.98C372.073 468.273 371.987 472.607 370.08 477.98L331.6 593.42C330.907 595.847 329.433 597.927 327.18 599.66C324.927 601.22 322.327 602 319.38 602C316.607 602 314.007 601.22 311.58 599.66C309.153 597.927 307.593 595.847 306.9 593.42L280.12 494.36H282.72L254.64 593.42C253.947 595.847 252.387 597.927 249.96 599.66C247.707 601.22 245.107 602 242.16 602ZM460.302 603.04C445.915 603.04 433.089 600.007 421.822 593.94C410.729 587.7 401.975 579.207 395.562 568.46C389.322 557.54 386.202 545.06 386.202 531.02C386.202 516.807 389.149 504.327 395.042 493.58C401.109 482.66 409.429 474.167 420.002 468.1C430.575 461.86 442.709 458.74 456.402 458.74C469.922 458.74 481.535 461.773 491.242 467.84C500.949 473.733 508.315 481.967 513.342 492.54C518.542 502.94 521.142 514.987 521.142 528.68C521.142 531.973 520.015 534.747 517.762 537C515.509 539.08 512.649 540.12 509.182 540.12H404.402V519.32H508.402L497.742 526.6C497.569 517.933 495.835 510.22 492.542 503.46C489.249 496.527 484.569 491.067 478.502 487.08C472.435 483.093 465.069 481.1 456.402 481.1C446.522 481.1 438.029 483.267 430.922 487.6C423.989 491.933 418.702 497.913 415.062 505.54C411.422 512.993 409.602 521.487 409.602 531.02C409.602 540.553 411.769 549.047 416.102 556.5C420.435 563.953 426.415 569.847 434.042 574.18C441.669 578.513 450.422 580.68 460.302 580.68C465.675 580.68 471.135 579.727 476.682 577.82C482.402 575.74 486.995 573.4 490.462 570.8C493.062 568.893 495.835 567.94 498.782 567.94C501.902 567.767 504.589 568.633 506.842 570.54C509.789 573.14 511.349 576 511.522 579.12C511.695 582.24 510.309 584.927 507.362 587.18C501.469 591.86 494.102 595.673 485.262 598.62C476.595 601.567 468.275 603.04 460.302 603.04ZM626.466 603.04C612.946 603.04 600.813 599.92 590.066 593.68C579.32 587.267 570.826 578.6 564.586 567.68C558.346 556.76 555.14 544.453 554.966 530.76V412.2C554.966 408.213 556.18 405.007 558.606 402.58C561.206 400.153 564.413 398.94 568.226 398.94C572.213 398.94 575.42 400.153 577.846 402.58C580.273 405.007 581.486 408.213 581.486 412.2V482.4C587.553 475.12 594.833 469.4 603.326 465.24C611.993 460.907 621.44 458.74 631.666 458.74C644.32 458.74 655.673 461.947 665.726 468.36C675.78 474.6 683.666 483.18 689.386 494.1C695.28 504.847 698.226 517.067 698.226 530.76C698.226 544.453 695.02 556.76 688.606 567.68C682.366 578.6 673.873 587.267 663.126 593.68C652.38 599.92 640.16 603.04 626.466 603.04ZM626.466 579.64C635.306 579.64 643.193 577.56 650.126 573.4C657.06 569.067 662.52 563.173 666.506 555.72C670.666 548.267 672.746 539.947 672.746 530.76C672.746 521.4 670.666 513.08 666.506 505.8C662.52 498.52 657.06 492.8 650.126 488.64C643.193 484.307 635.306 482.14 626.466 482.14C617.8 482.14 609.913 484.307 602.806 488.64C595.873 492.8 590.413 498.52 586.426 505.8C582.44 513.08 580.446 521.4 580.446 530.76C580.446 539.947 582.44 548.267 586.426 555.72C590.413 563.173 595.873 569.067 602.806 573.4C609.913 577.56 617.8 579.64 626.466 579.64ZM755.388 664.4C753.654 664.4 751.574 663.88 749.148 662.84C741.521 659.373 739.441 653.913 742.908 646.46L822.208 467.32C825.674 460.04 831.134 457.96 838.588 461.08C846.388 464.373 848.554 469.833 845.088 477.46L765.528 656.34C763.448 661.713 760.068 664.4 755.388 664.4ZM786.068 596.28C782.774 597.667 779.654 597.84 776.708 596.8C773.934 595.587 771.681 593.333 769.948 590.04L710.408 476.94C708.674 473.647 708.414 470.527 709.628 467.58C711.014 464.46 713.354 462.207 716.648 460.82C719.941 459.433 723.061 459.347 726.008 460.56C728.954 461.6 731.208 463.767 732.768 467.06L789.708 580.16C791.441 583.453 792.048 586.66 791.528 589.78C791.181 592.727 789.361 594.893 786.068 596.28Z" fill="#001BA4"/>
</svg>
